<svg width="68" height="12" viewBox="0 0 68 12" fill="none" xmlns="http://www.w3.org/2000/svg">
<rect width="68" height="12" fill="#1E1E1E"/>
<g id="MAIN_V05">
<path d="M-2112 -1293C-2112 -1294.1 -2111.1 -1295 -2110 -1295H5937C5938.1 -1295 5939 -1294.1 5939 -1293V4985C5939 4986.1 5938.1 4987 5937 4987H-2110C-2111.1 4987 -2112 4986.1 -2112 4985V-1293Z" fill="#444444"/>
<path d="M-2110 -1294H5937V-1296H-2110V-1294ZM5938 -1293V4985H5940V-1293H5938ZM5937 4986H-2110V4988H5937V4986ZM-2111 4985V-1293H-2113V4985H-2111ZM-2110 4986C-2110.55 4986 -2111 4985.55 -2111 4985H-2113C-2113 4986.66 -2111.66 4988 -2110 4988V4986ZM5938 4985C5938 4985.55 5937.55 4986 5937 4986V4988C5938.66 4988 5940 4986.66 5940 4985H5938ZM5937 -1294C5937.55 -1294 5938 -1293.55 5938 -1293H5940C5940 -1294.66 5938.66 -1296 5937 -1296V-1294ZM-2110 -1296C-2111.66 -1296 -2113 -1294.66 -2113 -1293H-2111C-2111 -1293.55 -2110.55 -1294 -2110 -1294V-1296Z" fill="white" fill-opacity="0.1"/>
<g id="LOGIN">
<g id="Frame5">
<g id="iPhone 16 Pro - 1">
<rect width="402" height="874" transform="translate(-302 -25)" fill="white" fill-opacity="0.95"/>
<g id="Status Bar">
<g id="Right Side">
<g id="Battery">
<path id="Rectangle" opacity="0.35" d="M45.6667 0.833984H62.3333C63.53 0.833984 64.5 1.80403 64.5 3.00065V9.00065C64.5 10.1973 63.53 11.1673 62.3333 11.1673H45.6667C44.47 11.1673 43.5 10.1973 43.5 9.00065V3.00065C43.5 1.80403 44.47 0.833984 45.6667 0.833984Z" stroke="black"/>
<path id="Combined Shape" opacity="0.4" d="M66 4.00098V8.00098C66.8047 7.6622 67.328 6.87411 67.328 6.00098C67.328 5.12784 66.8047 4.33975 66 4.00098" fill="black"/>
<path id="Rectangle_2" d="M45 3.66732C45 2.93094 45.597 2.33398 46.3333 2.33398H61.6667C62.403 2.33398 63 2.93094 63 3.66732V8.33398C63 9.07036 62.403 9.66732 61.6667 9.66732H46.3333C45.597 9.66732 45 9.07036 45 8.33398V3.66732Z" fill="black"/>
</g>
<path id="Wifi" fill-rule="evenodd" clip-rule="evenodd" d="M30.3302 2.60838C32.5461 2.60848 34.6773 3.45992 36.2832 4.98672C36.4041 5.10459 36.5974 5.1031 36.7165 4.98338L37.8725 3.81672C37.9329 3.75599 37.9665 3.67374 37.966 3.58816C37.9655 3.50258 37.9309 3.42073 37.8699 3.36072C33.6548 -0.678832 27.005 -0.678832 22.7899 3.36072C22.7288 3.42068 22.6942 3.50251 22.6936 3.58809C22.693 3.67367 22.7266 3.75595 22.7869 3.81672L23.9432 4.98338C24.0622 5.10328 24.2557 5.10477 24.3765 4.98672C25.9827 3.45982 28.1141 2.60838 30.3302 2.60838ZM30.3302 6.40405C31.5477 6.40397 32.7217 6.85651 33.6242 7.67372C33.7463 7.7897 33.9386 7.78718 34.0575 7.66805L35.2122 6.50138C35.273 6.44019 35.3068 6.35717 35.3059 6.27091C35.305 6.18464 35.2696 6.10233 35.2075 6.04238C32.4593 3.486 28.2034 3.486 25.4552 6.04238C25.3931 6.10233 25.3577 6.18468 25.3569 6.27097C25.3561 6.35727 25.3899 6.44028 25.4509 6.50138L26.6052 7.66805C26.7242 7.78718 26.9165 7.7897 27.0385 7.67372C27.9404 6.85705 29.1135 6.40455 30.3302 6.40405ZM32.6431 8.95752C32.6448 9.04403 32.6108 9.12743 32.5491 9.18804L30.5517 11.2037C30.4932 11.2629 30.4134 11.2963 30.3301 11.2963C30.2468 11.2963 30.167 11.2629 30.1084 11.2037L28.1107 9.18804C28.049 9.12739 28.0151 9.04396 28.0169 8.95745C28.0187 8.87094 28.0562 8.78903 28.1204 8.73104C29.396 7.65215 31.2642 7.65215 32.5397 8.73104C32.6039 8.78907 32.6413 8.87102 32.6431 8.95752Z" fill="black"/>
<path id="Mobile Signal" fill-rule="evenodd" clip-rule="evenodd" d="M16.6665 0.666992H15.6665C15.1142 0.666992 14.6665 1.11471 14.6665 1.66699V10.3337C14.6665 10.8859 15.1142 11.3337 15.6665 11.3337H16.6665C17.2188 11.3337 17.6665 10.8859 17.6665 10.3337V1.66699C17.6665 1.11471 17.2188 0.666992 16.6665 0.666992ZM11 3H12C12.5523 3 13 3.44772 13 4V10.3333C13 10.8856 12.5523 11.3333 12 11.3333H11C10.4477 11.3333 10 10.8856 10 10.3333V4C10 3.44772 10.4477 3 11 3ZM7.33301 5.33398H6.33301C5.78072 5.33398 5.33301 5.7817 5.33301 6.33398V10.334C5.33301 10.8863 5.78072 11.334 6.33301 11.334H7.33301C7.88529 11.334 8.33301 10.8863 8.33301 10.334V6.33398C8.33301 5.7817 7.88529 5.33398 7.33301 5.33398ZM2.6665 7.33398H1.6665C1.11422 7.33398 0.666504 7.7817 0.666504 8.33398V10.334C0.666504 10.8863 1.11422 11.334 1.6665 11.334H2.6665C3.21879 11.334 3.6665 10.8863 3.6665 10.334V8.33398C3.6665 7.7817 3.21879 7.33398 2.6665 7.33398Z" fill="black"/>
</g>
</g>
</g>
</g>
</g>
</g>
</svg>
